Coordinates
version=1
nRows=13
nColumns=40
inDegrees=yes

Units are S.I. units (second, meters, Newtons, ...)
Angles are in degrees.

endheader
time	pelvis_tilt	pelvis_list	pelvis_rotation	pelvis_tx	pelvis_ty	pelvis_tz	hip_flexion_r	hip_adduction_r	hip_rotation_r	knee_angle_r	knee_angle_r_beta	ankle_angle_r	subtalar_angle_r	mtp_angle_r	hip_flexion_l	hip_adduction_l	hip_rotation_l	knee_angle_l	knee_angle_l_beta	ankle_angle_l	subtalar_angle_l	mtp_angle_l	lumbar_extension	lumbar_bending	lumbar_rotation	arm_flex_r	arm_add_r	arm_rot_r	elbow_flex_r	pro_sup_r	wrist_flex_r	wrist_dev_r	arm_flex_l	arm_add_l	arm_rot_l	elbow_flex_l	pro_sup_l	wrist_flex_l	wrist_dev_l
     10.87678571	     -3.45541382	     -4.43131009	      8.04579797	      0.98110102	      0.92013589	      0.54011671	      2.76433096	      4.15624524	    -15.12326226	     16.62409676	     16.62409676	     18.70436969	     -5.62872673	     -1.43633499	     28.11821211	     -8.34616728	      3.60216216	     17.89798414	     17.89798414	      5.60197679	     -3.10167565	      6.10513982	     -9.65118709	      3.01935815	      4.22369735	     56.26554127	    -15.73233801	     -1.85344702	     78.85465082	     44.63250510	      0.00000000	      0.00000000	    -15.34647489	     -9.17031011	     29.51353234	     33.97839903	     42.62190541	      0.00000000	      0.00000000
     10.89857143	     -3.60509610	     -4.52921470	      7.87825169	      0.98268437	      0.91932191	      0.53640654	      2.42847427	      4.01666024	    -15.14081224	     16.52592732	     16.52592732	     18.97029432	     -5.24616635	     -1.36246588	     28.19631432	     -8.33008061	      3.18727513	     18.44418533	     18.44418533	      4.43734519	     -3.48358258	      3.50911243	     -9.42131730	      2.96374740	      4.17832765	     56.64322935	    -15.04621955	     -1.58007100	     80.68300508	     44.58765423	      0.00000000	      0.00000000	    -15.09776381	     -9.27695875	     29.91869485	     33.43333319	     42.64516116	      0.00000000	      0.00000000
     10.92035714	     -3.67188899	     -4.45771449	      7.62731789	      0.98450377	      0.91895356	      0.53252836	      1.98059541	      3.71259261	    -14.90397306	     16.43199700	     16.43199700	     19.11404827	     -5.14033439	     -1.35405417	     28.10844156	     -8.14893961	      2.82978708	     19.17030888	     19.17030888	      4.10308220	     -4.02521932	      3.27810377	     -9.21922927	      2.70389030	      4.47880254	     57.10259280	    -14.68731028	     -1.46372078	     80.99084053	     44.57749686	      0.00000000	      0.00000000	    -14.70004405	     -9.66648096	     29.85854998	     33.38425857	     42.66226598	      0.00000000	      0.00000000
     10.94214286	     -3.59070839	     -4.54376332	      7.42903341	      0.98657618	      0.91854060	      0.52820313	      1.39331682	      3.51710133	    -14.97713804	     16.41481999	     16.41481999	     19.42144171	     -4.55378018	     -1.03154622	     27.87696211	     -7.94356079	      3.33845147	     19.84333760	     19.84333760	      2.20727245	     -6.39034501	     -0.94798122	     -9.27845503	      2.72332121	      4.87654868	     56.95883193	    -14.82923942	     -1.31901011	     83.45998568	     44.54208612	      0.00000000	      0.00000000	    -13.92165524	     -9.74792897	     30.35384890	     32.50312293	     42.75347245	      0.00000000	      0.00000000
     10.96392857	     -3.58911100	     -4.59553129	      7.17706306	      0.98871235	      0.91836259	      0.52388698	      0.82720637	      3.32102874	    -14.83122584	     16.23466354	     16.23466354	     19.45254154	     -4.34627166	     -0.95675066	     27.91459106	     -7.81097076	      3.33119465	     21.01763515	     21.01763515	      2.19877508	     -7.35180799	     -1.24888049	     -9.13686305	      2.65577708	      4.99837834	     57.16260252	    -14.40388554	     -1.17184587	     83.71678349	     44.53804256	      0.00000000	      0.00000000	    -13.46602193	    -10.10344873	     30.34590156	     32.46762640	     42.78142362	      0.00000000	      0.00000000
     10.98571429	     -3.56061271	     -4.62040224	      6.91322563	      0.99091082	      0.91842194	      0.51937306	      0.21320790	      3.06930893	    -14.75885177	     16.02931527	     16.02931527	     19.43108135	     -4.01240915	     -0.88093977	     27.84038736	     -7.59654386	      3.48227142	     22.06064793	     22.06064793	      2.30142296	     -8.52134491	     -1.34908566	     -9.03040448	      2.59110293	      5.08795911	     57.21532395	    -14.03061268	     -0.96554505	     84.08011902	     44.52867909	      0.00000000	      0.00000000	    -12.95442501	    -10.45427551	     30.31045073	     32.41360871	     42.81575751	      0.00000000	      0.00000000
     11.00750000	     -3.56234182	     -4.56509626	      6.58517426	      0.99315414	      0.91872759	      0.51475358	     -0.33781204	      2.69574420	    -14.60442426	     15.89107791	     15.89107791	     19.29624227	     -3.71146947	     -0.80101214	     27.65372477	     -7.32793852	      3.47994712	     22.87765352	     22.87765352	      2.58320897	     -9.38087253	     -1.40034800	     -8.90770808	      2.42012817	      5.24019467	     57.10535112	    -13.71648611	     -0.76275424	     84.22688835	     44.52139648	      0.00000000	      0.00000000	    -12.38726636	    -10.84935473	     30.21667408	     32.41351547	     42.84620470	      0.00000000	      0.00000000
     11.02928571	     -3.56662544	     -4.56328743	      6.27164242	      0.99526464	      0.91917371	      0.51003697	     -0.86989739	      2.36188957	    -14.53381460	     15.74074683	     15.74074683	     19.09677668	     -3.34369913	     -0.72501355	     27.44582221	     -7.07343436	      3.58379982	     23.58447763	     23.58447763	      2.98483924	    -10.24188464	     -1.34884085	     -8.76645865	      2.35514714	      5.38153014	     56.96207384	    -13.49470570	     -0.56289454	     84.31154986	     44.51616602	      0.00000000	      0.00000000	    -11.76652645	    -11.24243393	     30.09980226	     32.43944174	     42.88047792	      0.00000000	      0.00000000
     11.05107143	     -3.59013400	     -4.54423915	      5.99328700	      0.99730638	      0.91981963	      0.50505428	     -1.42780887	      1.95224336	    -14.79727497	     15.50498312	     15.50498312	     18.85420664	     -2.46904737	     -0.77367612	     27.16431142	     -6.67905959	      3.99042096	     24.11120432	     24.11120432	      3.59723232	    -11.41718392	     -0.41038792	     -8.62602689	      2.31866685	      5.64857357	     56.71122290	    -13.61855284	     -0.22209816	     84.36845650	     44.52050939	      0.00000000	      0.00000000	    -10.98568008	    -11.62317316	     29.90583652	     32.44053283	     42.96294518	      0.00000000	      0.00000000
     11.07285714	     -3.63104379	     -4.51249796	      5.64722060	      0.99916353	      0.92048983	      0.50027168	     -1.78245606	      1.54148673	    -14.67915264	     15.55633248	     15.55633248	     18.57403011	     -2.27981360	     -0.71174489	     26.87292702	     -6.43921842	      3.81945873	     24.53044934	     24.53044934	      4.14110559	    -11.77976361	     -0.46380168	     -8.47856626	      2.24110364	      5.71465663	     56.37364037	    -13.40015895	     -0.04582773	     84.22554134	     44.52147789	      0.00000000	      0.00000000	    -10.29280558	    -12.03225182	     29.76568379	     32.51843633	     42.99758510	      0.00000000	      0.00000000
     11.09464286	     -3.70047955	     -4.51888824	      5.34338518	      1.00090442	      0.92120744	      0.49543421	     -2.07582167	      1.16370037	    -14.60689587	     15.63408081	     15.63408081	     18.23623310	     -2.06419362	     -0.65295123	     26.55175257	     -6.21140277	      3.69178295	     24.79266622	     24.79266622	      4.73051151	    -12.06014454	     -0.52019711	     -8.32425139	      2.22519453	      5.76523398	     55.99795209	    -13.26835386	      0.10389470	     83.97129358	     44.52612257	      0.00000000	      0.00000000	     -9.54776101	    -12.42125336	     29.61458153	     32.63480666	     43.03260118	      0.00000000	      0.00000000
     11.11642857	     -3.74250928	     -4.44975330	      5.03346149	      1.00246345	      0.92207501	      0.49051317	     -2.32566692	      0.62124931	    -14.84295625	     15.85156510	     15.85156510	     17.89132509	     -1.38755712	     -0.89442817	     26.14125665	     -5.91945901	      3.44466098	     24.96069208	     24.96069208	      5.61502388	    -12.09364219	      0.12896905	     -8.14938438	      2.12967072	      6.04146654	     55.60809167	    -13.64224593	      0.24341122	     82.90928225	     44.57072854	      0.00000000	      0.00000000	     -8.65013049	    -12.75706256	     29.31109826	     32.80731965	     43.12417106	      0.00000000	      0.00000000
     11.13821429	     -3.79951349	     -4.48241665	      4.77734558	      1.00381505	      0.92291350	      0.48574038	     -2.50195047	      0.26320682	    -14.78498589	     16.08623459	     16.08623459	     17.49756884	     -1.31203466	     -0.84220233	     25.76275170	     -5.72544470	      3.26452502	     25.05080302	     25.05080302	      6.15879593	    -12.20648130	      0.02463942	     -8.03567198	      2.18574775	      5.87264165	     54.98177398	    -13.44064030	      0.40181147	     82.60276227	     44.57519242	      0.00000000	      0.00000000	     -7.81518699	    -13.10012841	     29.16439144	     32.95119152	     43.15856728	      0.00000000	      0.00000000
